<svg width="100" height="100" viewBox="0 0 100 100" fill="none" xmlns="http://www.w3.org/2000/svg">
<path fill-rule="evenodd" clip-rule="evenodd" d="M86.9647 65.1922C85.5143 67.0202 81.9608 68.3243 81.9608 68.3243L55.5267 77.8099V70.8145L74.9804 63.8898C77.1881 63.0996 77.527 61.9826 75.7326 61.3962C73.9415 60.8082 70.6984 60.9767 68.4891 61.7703L55.5267 66.3311V59.0712L56.2738 58.8184C56.2738 58.8184 60.0195 57.4942 65.2864 56.9112C70.5534 56.3316 77.0025 56.9904 82.0654 58.9077C87.7708 60.7088 88.4134 63.3641 86.9647 65.1922ZM58.0429 53.2804V35.3908C58.0429 33.2898 57.655 31.3556 55.6818 30.808C54.1707 30.3245 53.233 31.7263 53.233 33.8256V78.6254L41.1392 74.7907V21.3746C46.2813 22.3283 53.7727 24.5826 57.8001 25.9389C68.0422 29.4517 71.5147 33.8239 71.5147 43.6751C71.5147 53.277 65.5816 56.9163 58.0429 53.2804V53.2804ZM18.9483 70.0833C13.091 68.4355 12.1163 65.0018 14.786 63.0238C17.2533 61.1974 21.4493 59.8226 21.4493 59.8226L38.7899 53.6628V60.6852L26.3115 65.1467C24.1072 65.9369 23.7683 67.0556 25.5593 67.6419C27.3521 68.2282 30.5969 68.0614 32.8045 67.2696L38.7899 65.0995V71.3823C38.4104 71.4497 37.9871 71.517 37.5958 71.5828C31.6088 72.56 25.2321 72.1522 18.9483 70.0833V70.0833ZM83.1127 72.8649C83.87 72.8649 84.58 73.1581 85.1146 73.6989C85.6492 74.2313 85.9443 74.9423 85.9443 75.6971C85.9443 76.4553 85.6492 77.1629 85.1146 77.6953C84.58 78.2328 83.87 78.526 83.1127 78.526C82.3555 78.526 81.6472 78.2328 81.1108 77.6953C80.5762 77.1629 80.2828 76.4553 80.2828 75.6971C80.2828 74.137 81.551 72.8649 83.1127 72.8649ZM80.7584 75.6971C80.7584 76.3256 81.0029 76.9169 81.4481 77.3584C81.8917 77.8065 82.4853 78.0492 83.1127 78.0492C84.413 78.0492 85.4671 76.9945 85.4671 75.6971C85.4671 75.067 85.2242 74.4756 84.7773 74.0325C84.3337 73.5843 83.7401 73.3434 83.1127 73.3434C82.4853 73.3434 81.8917 73.5843 81.4481 74.0325C81.0029 74.4756 80.7584 75.067 80.7584 75.6971V75.6971ZM83.9678 74.1724C84.2781 74.3088 84.4349 74.5717 84.4349 74.9457C84.4349 75.1378 84.3945 75.2995 84.3118 75.4259C84.2528 75.5168 84.1685 75.591 84.074 75.655C84.1482 75.6988 84.214 75.751 84.2629 75.8117C84.3304 75.8993 84.3692 76.0391 84.3742 76.2295L84.3894 76.6322C84.3945 76.74 84.4012 76.8226 84.4181 76.8731C84.435 76.9473 84.467 76.9945 84.5075 77.0096L84.5496 77.0298V77.0753V77.1444V77.2135H84.4805H83.9796H83.9391L83.9189 77.1781C83.902 77.1444 83.8902 77.1057 83.8784 77.0551C83.87 77.0096 83.8615 76.9305 83.8565 76.8091L83.8312 76.3088C83.8244 76.1352 83.7654 76.0274 83.6541 75.9701C83.5849 75.9381 83.4702 75.9229 83.3151 75.9229H82.4567V77.1444V77.2135H82.3858H81.9777H81.9085V77.1444V74.1336V74.0646H81.9777H83.3724C83.6119 74.0646 83.8126 74.0999 83.9678 74.1724L83.9678 74.1724ZM82.4567 75.441H83.3303C83.5057 75.441 83.6457 75.409 83.7452 75.3433C83.8362 75.2776 83.8801 75.158 83.8801 74.9844C83.8801 74.7957 83.8177 74.6727 83.6861 74.607C83.6136 74.5717 83.5124 74.5514 83.3842 74.5514H82.4567V75.441Z" fill="white" fill-opacity="0.75"/>
</svg>
