<svg width="100" height="100" viewBox="0 0 100 100" fill="none" xmlns="http://www.w3.org/2000/svg">
<path d="M46.346 82.1949C41.4503 81.7259 36.4941 79.9679 32.2366 77.1899C28.669 74.8632 27.8639 73.9052 27.8639 71.9958C27.8639 68.1601 32.0815 61.4407 39.2979 53.7825C43.3952 49.4319 49.1033 44.3353 49.7201 44.4727C50.9211 44.7409 60.516 54.1001 64.1087 58.5068C69.7889 65.4722 72.3992 71.1774 71.0726 73.7205C70.0644 75.6535 63.8066 79.4324 59.2101 80.8838C55.4209 82.0804 50.4447 82.5871 46.346 82.1949V82.1949ZM23.045 68.0079C20.0801 63.4594 18.5822 58.9818 17.8598 52.5054C17.6205 50.3671 17.7047 49.1446 18.4012 44.7542C19.2676 39.2882 22.3824 32.9581 26.1273 29.0655C27.7213 27.411 27.8631 27.3667 29.8072 28.024C32.1635 28.8218 34.6822 30.562 38.5896 34.0956L40.872 36.1594L39.6237 37.6884C33.8416 44.7867 27.739 54.8543 25.4419 61.081C24.1936 64.4639 23.6913 67.8617 24.2305 69.2761C24.5924 70.2319 24.2601 69.8759 23.0413 68.0101L23.045 68.0079ZM75.0841 68.7813C75.3774 67.3513 75.0066 64.7261 74.1387 62.0774C72.2589 56.3419 65.9738 45.6723 60.2028 38.4174L58.3858 36.1335L60.352 34.329C62.9181 31.9728 64.6997 30.562 66.6231 29.3632C68.1395 28.4177 70.3074 27.5809 71.2395 27.5809C71.8135 27.5809 73.8366 29.686 75.469 31.9757C77.9981 35.5212 79.8579 39.8275 80.8004 44.3036C81.4098 47.199 81.4608 53.3888 80.8987 56.2769C80.4333 58.6464 79.4583 61.7177 78.5129 63.8014C77.7964 65.3621 76.0311 68.3942 75.2555 69.381C74.8566 69.8885 74.8566 69.8877 75.0782 68.7931L75.0841 68.7813ZM46.8704 26.498C44.2069 25.1463 40.0986 23.6949 37.8295 23.3034C37.0348 23.1668 35.6779 23.0892 34.8159 23.1335C32.9427 23.2281 33.0262 23.1306 36.0295 21.7117C38.5261 20.5321 40.609 19.8385 43.438 19.2446C46.6178 18.5761 52.5971 18.5688 55.7267 19.2284C59.106 19.9411 63.0865 21.4221 65.329 22.8034L65.9967 23.2126L64.4677 23.1357C61.4275 22.9821 56.9972 24.2105 52.2403 26.5239C50.8059 27.2226 49.5591 27.7796 49.4675 27.7648C49.3766 27.7471 48.2074 27.1776 46.8675 26.498H46.8704Z" fill="white" fill-opacity="0.75"/>
</svg>
